<svg width="52" height="50" viewBox="0 0 52 50" fill="none" xmlns="http://www.w3.org/2000/svg">
<rect width="50.6849" height="50" rx="19" fill="#7752BE"/>
<path d="M29.3764 27.5982L20.2335 18.4554C20.1264 18.3393 19.9835 18.2857 19.8317 18.2857C19.7603 18.2857 19.6799 18.3036 19.6174 18.3304C19.4031 18.4196 19.2603 18.625 19.2603 18.8571V32.2857C19.2603 32.5179 19.4031 32.7232 19.6174 32.8125C19.6799 32.8393 19.7603 32.8571 19.8317 32.8571C19.9835 32.8571 20.1264 32.7946 20.2335 32.6875L23.0192 29.9018L24.7246 33.9375C24.8496 34.2232 25.1799 34.3661 25.4746 34.2411L27.0549 33.5714C27.3406 33.4464 27.4835 33.1161 27.3585 32.8214L25.5639 28.5714H28.9746C29.2067 28.5714 29.4121 28.4286 29.5014 28.2143C29.5906 28.0089 29.546 27.7589 29.3764 27.5982Z" fill="white"/>
</svg>
