<svg width="52" height="50" viewBox="0 0 52 50" fill="none" xmlns="http://www.w3.org/2000/svg">
<g clip-path="url(#clip0)">
<rect x="0.712646" width="50.6849" height="50" rx="19" fill="#4DADF7"/>
<path d="M31.5307 19.4286H32.3878C32.5485 19.4286 32.6735 19.3036 32.6735 19.1429V18.5714C32.6735 18.4107 32.5485 18.2857 32.3878 18.2857H19.2449C19.0842 18.2857 18.9592 18.4107 18.9592 18.5714V19.1429C18.9592 19.3036 19.0842 19.4286 19.2449 19.4286H20.1021C20.1021 22.7321 21.6824 25.125 23.4324 26.2857C21.6824 27.4464 20.1021 29.8393 20.1021 33.1429H19.2449C19.0842 33.1429 18.9592 33.2679 18.9592 33.4286V34C18.9592 34.1607 19.0842 34.2857 19.2449 34.2857H32.3878C32.5485 34.2857 32.6735 34.1607 32.6735 34V33.4286C32.6735 33.2679 32.5485 33.1429 32.3878 33.1429H31.5307C31.5307 29.8393 29.9503 27.4464 28.2003 26.2857C29.9503 25.125 31.5307 22.7321 31.5307 19.4286ZM30.3878 19.4286C30.3878 20.7321 30.0932 21.8839 29.6289 22.8571H22.0039C21.5396 21.8839 21.2449 20.7321 21.2449 19.4286H30.3878ZM29.8789 30.2857H21.7539C22.4146 28.5625 23.6021 27.3393 24.7896 26.8571H26.8432C28.0307 27.3393 29.2182 28.5625 29.8789 30.2857Z" fill="white"/>
</g>
<defs>
<clipPath id="clip0">
<rect width="50.6849" height="50" fill="white" transform="translate(0.712646)"/>
</clipPath>
</defs>
</svg>
