<svg width="52" height="50" viewBox="0 0 52 50" fill="none" xmlns="http://www.w3.org/2000/svg">
<g clip-path="url(#clip0)">
<rect x="0.917603" width="50.6849" height="50" rx="19" fill="#FAB005"/>
<path d="M26.6189 24.6429L27.7886 25.1875L29.5296 24.6696V23.4554C29.5296 21.3929 27.7886 19.7411 25.7082 19.7411C23.6368 19.7411 21.8868 21.3839 21.8868 23.4286V28.9643C21.8868 29.4732 21.4761 29.875 20.9761 29.875C20.4761 29.875 20.0654 29.4732 20.0654 28.9643V26.625H17.1368C17.1368 28.9732 17.1368 29 17.1368 29C17.1368 31.1161 18.8511 32.8304 20.9671 32.8304C23.0654 32.8304 24.7975 31.1429 24.7975 29.0536V23.5893C24.7975 23.0893 25.2082 22.6786 25.7082 22.6786C26.2082 22.6786 26.6189 23.0893 26.6189 23.5893V24.6429ZM31.3511 26.625V29.0804C31.3511 29.5804 30.9404 29.9821 30.4404 29.9821C29.9404 29.9821 29.5296 29.5804 29.5296 29.0804V26.6696L27.7886 27.1875L26.6189 26.6429V29.0357C26.6189 31.1339 28.3421 32.8304 30.4493 32.8304C32.5654 32.8304 34.2796 31.1161 34.2796 29C34.2796 29 34.2796 28.9732 34.2796 26.625H31.3511Z" fill="white"/>
</g>
<defs>
<clipPath id="clip0">
<rect width="50.6849" height="50" fill="white" transform="translate(0.917603)"/>
</clipPath>
</defs>
</svg>
