<svg width="52" height="50" viewBox="0 0 52 50" fill="none" xmlns="http://www.w3.org/2000/svg">
<g clip-path="url(#clip0)">
<rect x="0.821838" width="50.6849" height="50" rx="19" fill="#F03E3D"/>
<path d="M26.0547 33.1429C26.1975 33.1429 26.3404 33.0893 26.4475 32.9821L32.01 27.625C32.0904 27.5446 34.0547 25.75 34.0547 23.6071C34.0547 20.9911 32.4565 19.4286 29.7868 19.4286C28.2243 19.4286 26.76 20.6607 26.0547 21.3571C25.3493 20.6607 23.885 19.4286 22.3225 19.4286C19.6529 19.4286 18.0547 20.9911 18.0547 23.6071C18.0547 25.75 20.019 27.5446 20.0904 27.6071L25.6618 32.9821C25.769 33.0893 25.9118 33.1429 26.0547 33.1429Z" fill="white"/>
</g>
<defs>
<clipPath id="clip0">
<rect width="50.6849" height="50" fill="white" transform="translate(0.821838)"/>
</clipPath>
</defs>
</svg>
